<svg version="1.2" xmlns="http://www.w3.org/2000/svg" viewBox="0 0 333 305" width="333" height="305"><style>.a{fill:#1d1d1b}</style><path class="a" d="m71.4 239.2q-12.9 3.9-25.7 7.7c-9.3 2.8-18.4 5.8-28.2 2.3-4.5-1.6-6.5 5.6-1.9 7.2 10.3 3.7 20.5 1.2 30.4-1.8q13.7-4 27.4-8.1c4.6-1.4 2.6-8.7-2-7.3z"/><path class="a" d="m65.7 211.8c-16.5 8.5-34.5 18.3-53.4 19.3-4.8 0.2-4.8 7.7 0 7.5 20.3-1.1 39.5-11.2 57.2-20.4 4.3-2.2 0.5-8.7-3.8-6.5z"/><path class="a" d="m105.4 229.1q-8.5 2.5-17 5.1c-4.7 1.3-2.7 8.6 1.9 7.2q8.5-2.6 17-5.1c4.7-1.4 2.7-8.6-1.9-7.2z"/><path class="a" d="m194.2 202.5q-34.8 10.4-69.6 20.8c-4.6 1.4-2.6 8.6 2 7.2q34.8-10.4 69.6-20.8c4.6-1.3 2.6-8.6-2-7.2z"/><path class="a" d="m327 161.6q-51.2 15.8-102.4 31.7-7.3 2.2-14.5 4.4c-4.8 1.5-2.6 8.7 2 7.3q51.2-15.9 102.4-31.7 7.3-2.2 14.5-4.5c4.8-1.4 2.7-8.6-2-7.2z"/><path class="a" d="m319.1 133.7q-6.4 2.4-12.7 4.9c-4.5 1.8-2.5 9 2 7.2q6.3-2.4 12.6-4.9c4.5-1.7 2.6-9-1.9-7.2z"/><path class="a" d="m322.3 110.4q-6.3 2.4-12.7 4.9c-4.4 1.7-2.5 9 2 7.2q6.3-2.4 12.7-4.9c4.4-1.7 2.5-9-2-7.2z"/><path class="a" d="m49.1 197.7q-8.5 3.3-17 6.6c-4.4 1.7-2.5 9 2 7.2l17-6.6c4.4-1.8 2.5-9-2-7.2z"/><path class="a" d="m48 177.3q-6.3 2.5-12.6 4.9c-4.5 1.8-2.6 9 1.9 7.2q6.4-2.4 12.7-4.9c4.5-1.7 2.5-9-2-7.2z"/><path class="a" d="m16.2 212q-5.3 2.2-10.7 4.4c-1.9 0.8-3.2 2.5-2.6 4.7 0.5 1.7 2.7 3.4 4.6 2.6q5.4-2.3 10.7-4.5c1.9-0.7 3.2-2.5 2.6-4.6-0.4-1.7-2.7-3.4-4.6-2.6z"/><path class="a" d="m17.1 190.9q-7.3 2.8-14.6 5.7c-4.4 1.7-2.5 9 2 7.2q7.3-2.8 14.6-5.7c4.5-1.7 2.5-9-2-7.2z"/><path class="a" d="m50.3 157.1q-6.3 2.5-12.7 5c-4.4 1.7-2.5 9 2 7.2q6.3-2.5 12.7-5c4.4-1.7 2.5-8.9-2-7.2z"/><path class="a" d="m19.4 170.7q-7.3 2.9-14.6 5.7c-4.5 1.8-2.5 9 2 7.2q7.3-2.8 14.6-5.7c4.4-1.7 2.5-8.9-2-7.2z"/><path class="a" d="m286.4 0c-14 0-25.3 11.3-25.3 25.3 0 0-1.4 18.7 25.5 43.7 26-23.8 25.1-43.7 25.1-43.7 0-14-11.4-25.3-25.3-25.3zm0 40.7c-8.4 0-15.3-6.9-15.3-15.4 0-8.4 6.9-15.3 15.3-15.3 8.5 0 15.4 6.9 15.4 15.3 0 8.5-6.9 15.4-15.4 15.4z"/><path fill-rule="evenodd" class="a" d="m286.4 31.8c-3.6 0-6.5-2.9-6.5-6.5 0-3.6 2.9-6.5 6.5-6.5 3.6 0 6.5 2.9 6.5 6.5 0 3.6-2.9 6.5-6.5 6.5z"/><path class="a" d="m273.1 100.9c-0.2-16.5-12-30.7-28.2-33.8l-27.6-4.5c-12.6-2.1-27.2 2.3-37.4 10.1l-104.3 73.2c-5.2 3.7-8.2 9.7-7.9 16.1l0.4 32.1c0.2 4.8 4.8 10.5 10.3 8.2l113.7-50.3 64 8.9c9.3 1.3 17.6-6 17.5-15.4zm-168.9 62.6l-21 11.4c-2.5 1.3-5.5-0.4-5.5-3.2l0.1-16.1c-0.1-1.2 0.6-2.4 1.6-3.1l19.7-12.3c2.4-1.6 5.6 0 5.7 2.8l1.3 17.1c0 1.4-0.7 2.8-1.9 3.4zm20.7 14.6c0 0.8-0.4 1.6-1.1 2l-6.6 3.5c-1.5 0.8-3.3-0.3-3.3-2v-54.5c0-0.8 0.5-1.6 1.2-2l6.6-3.5c1.4-0.8 3.2 0.3 3.2 2zm15.9-7.9c0 0.9-0.5 1.6-1.2 2l-6.6 3.5c-1.4 0.8-3.2-0.2-3.2-1.9v-54.6c0-0.8 0.4-1.5 1.1-1.9l6.6-3.5c1.5-0.8 3.3 0.2 3.3 1.9zm35.5-42.8l-18.8 9.5c-2.4 1.3-5.4-0.5-5.3-3.3l0.6-28.8c0.1-1.3 0.7-2.4 1.8-3.1l17.5-10.6c2.4-1.4 5.5 0.3 5.6 3.1l0.6 29.9c0 1.4-0.8 2.7-2 3.3zm20.5-30l0.5-13c1.5-9.5 9.1-14.2 17.7-13.2l32.9 7c9 2.8 15.5 10.3 16 19.1l0.3 17.8c0.2 5.2-4.8 9.5-10.1 8.5l-45.5-9.1c-7.8-1.5-13.2-9.6-11.8-17.1zm9.5 48.2c-5.4 0-9.7-4.4-9.7-9.7 0-5.3 4.3-9.7 9.7-9.7 5.3 0 9.6 4.4 9.6 9.7 0 5.3-4.3 9.7-9.6 9.7zm50.4 6.8c-4.9 0-8.8-3.9-8.8-8.8 0-4.8 3.9-8.7 8.8-8.7 4.9 0 8.8 3.9 8.8 8.7 0 4.9-3.9 8.8-8.8 8.8z"/><path class="a" d="m102 208.2c-4.2-3-4.8-8.3-4.8-8.3l14.5-6c0 0 0.5 4.7-0.5 10.3-0.7 4.5-5.9 6.4-9.2 4z"/><path class="a" d="m156.3 187.4c-4.2-3-5-11.4-5-11.4l14.5-6c0 0 0.8 7.7-0.2 13.4-0.8 4.5-6 6.4-9.3 4z"/><path class="a" d="m84.5 215.3c-4.2-3-4.8-8.3-4.8-8.3l14.5-6c0 0 0.5 4.7-0.4 10.3-0.8 4.5-6 6.4-9.3 4z"/><path class="a" d="m175.7 181.2c-3.5-3.7-3.1-12.7-3.1-12.7l14.7-6.2c0 0 2.1 8.5-1.4 16.1-1.9 4.1-7.4 5.8-10.2 2.8z"/><path class="a" d="m210.4 173h-14.8v-10.6l23.9 2.8c-0.2 5.4-4.6 7.8-9.1 7.8z"/><path class="a" d="m224.9 173.2l-1.3-7.1 22 2.9c-0.2 5.3-20.7 4.2-20.7 4.2z"/><path class="a" d="m126.9 190.6l-11 4.9c0.1 2 0.1 5.4-0.6 9.1-0.5 3.3-2.7 6-5.8 7.3-1.2 0.5-2.4 0.7-3.6 0.7-2 0-3.8-0.6-5.4-1.7-0.9-0.7-1.6-1.4-2.3-2.1q-0.1 1.4-0.4 3c-0.6 3.3-2.7 6-5.8 7.2q-1.8 0.8-3.6 0.8c-2 0-3.8-0.6-5.4-1.8-2.6-1.8-4.1-4.3-4.9-6.4q-1.2 0.2-2.3 0.2c-2.9 0-5.8-0.8-8.3-2.4-3.7-2.3-6.4-6.1-7.7-10.4q1.8 17.1 6.5 31.5l64.7-19c-2.1-5.6-3.5-12.4-4.2-20.9z"/><path fill-rule="evenodd" class="a" d="m58.9 146.6l67.4-47.4 0.1-74.5h-67.7l0.2 121.9z"/><path class="a" d="m256.8 143.8c0-0.2-0.1-0.3-0.2-0.3-0.1 0-0.2 0.1-0.2 0.3 0 0.2 0.4 0.2 0.4 0z"/><path class="a" d="m293.1 75.1c-3.5 3.6-9.3 3.6-12.9 0-23.6-24.3-27.5-43.4-28.2-50.4h-26.4v30.2l20.9 3.4c20.3 3.9 35.3 21.8 35.5 42.5l0.5 44.6c0 7.1-3 13.9-8.3 18.6-5.3 4.7-12.4 6.8-19.5 5.8l-6.1-0.9v0.5c0 1-0.4 2.4-1.8 3.7-3.2 3-11.3 3.5-17 3.5-1.7 0-3.2 0-4.3-0.1q0 3.8 0 7.3l71.5-21 0.1-91.9q-1.9 2.1-4 4.2z"/><path class="a" d="m216 225.8c-10.3 11.9-19 15.8-37.6 15.8-13.6 0-23.9-3.9-31.8-9.8l-70.5 20.7q6 10.5 14.2 19 31.6 33.1 87.7 33.1c37.4 0 66.3-11 87.4-33.1q28.7-30 31.3-83.7l-72.6 21.3c-1.3 6.4-3.6 11.6-8.1 16.7z"/><path fill-rule="evenodd" class="a" d="m308.8 248.2c-3.7 0-6.6-2.9-6.6-6.6 0-3.7 2.9-6.6 6.6-6.6 3.7 0 6.6 2.9 6.6 6.6 0 3.7-2.9 6.6-6.6 6.6z"/><path fill-rule="evenodd" class="a" d="m318.7 210.6c-3.7 0-6.7-2.9-6.7-6.6 0-3.7 3-6.6 6.7-6.6 3.6 0 6.6 2.9 6.6 6.6 0 3.7-3 6.6-6.6 6.6z"/></svg>